<?xml version="1.0" standalone="no"?>
<!DOCTYPE svg PUBLIC "-//W3C//DTD SVG 20010904//EN"
 "http://www.w3.org/TR/2001/REC-SVG-20010904/DTD/svg10.dtd">
<svg version="1.0" xmlns="http://www.w3.org/2000/svg"
 width="100.000000pt" height="100.000000pt" viewBox="0 0 100.000000 100.000000"
 preserveAspectRatio="xMidYMid meet">
<metadata>
Created by potrace 1.14, written by Peter Selinger 2001-2017
</metadata>
<g transform="translate(0.000000,100.000000) scale(0.100000,-0.100000)"
fill="#000000" stroke="none">
<path d="M32 968 c-9 -9 -12 -74 -12 -230 l0 -218 230 0 230 0 0 230 0 230
-218 0 c-156 0 -221 -3 -230 -12z m246 -161 l3 -46 47 -3 c34 -2 47 -7 47 -18
0 -11 -13 -16 -47 -18 l-47 -3 -3 -47 c-2 -34 -7 -47 -18 -47 -11 0 -16 13
-18 47 l-3 47 -47 3 c-34 2 -47 7 -47 18 0 11 13 16 48 18 l47 3 0 43 c0 23 3
46 7 50 16 15 28 -3 31 -47z"/>
<path d="M520 750 l0 -230 230 0 230 0 0 218 c0 156 -3 221 -12 230 -9 9 -74
12 -230 12 l-218 0 0 -230z m355 -10 c0 -12 -20 -16 -109 -18 -106 -3 -136 4
-121 27 4 8 44 11 118 9 92 -2 112 -6 112 -18z"/>
<path d="M20 262 c0 -156 3 -221 12 -230 9 -9 74 -12 230 -12 l218 0 0 230 0
230 -230 0 -230 0 0 -218z m210 36 l31 -32 31 32 c29 32 48 37 55 16 2 -5 -11
-25 -28 -43 l-30 -34 31 -32 c18 -19 29 -38 26 -44 -11 -18 -24 -13 -56 21
l-30 31 -32 -32 c-30 -31 -48 -36 -55 -15 -2 6 11 25 28 43 l31 33 -31 30
c-32 31 -36 40 -24 51 12 12 22 7 53 -25z"/>
<path d="M520 250 l0 -230 218 0 c156 0 221 3 230 12 9 9 12 74 12 230 l0 218
-230 0 -230 0 0 -230z m355 50 c0 -12 -20 -16 -109 -18 -106 -3 -136 4 -121
27 4 8 44 11 118 9 92 -2 112 -6 112 -18z m0 -120 c0 -12 -20 -16 -109 -18
-106 -3 -136 4 -121 27 4 8 44 11 118 9 92 -2 112 -6 112 -18z"/>
</g>
</svg>
