<?xml version="1.0" encoding="UTF-8"?>
<svg xmlns="http://www.w3.org/2000/svg" xmlns:xlink="http://www.w3.org/1999/xlink" viewBox="0 0 48 48" width="48px" height="48px">
<g id="surface52273702">
<path style=" stroke:none;fill-rule:nonzero;fill:rgb(100%,89.411765%,88.235295%);fill-opacity:1;" d="M 24 0 C 22.800781 0 22 0.800781 22 2 L 22 4 C 22 5.199219 22.800781 6 24 6 C 25.199219 6 26 5.199219 26 4 L 26 2 C 26 0.800781 25.199219 0 24 0 Z M 8.398438 6.398438 C 7.898438 6.398438 7.398438 6.601562 7 7 C 6.199219 7.800781 6.199219 9 7 9.800781 L 8.398438 11.199219 C 9.199219 12 10.398438 12 11.199219 11.199219 C 12 10.398438 12 9.199219 11.199219 8.398438 L 9.800781 7 C 9.402344 6.601562 8.898438 6.398438 8.398438 6.398438 Z M 39.601562 6.398438 C 39.101562 6.398438 38.597656 6.601562 38.199219 7 L 36.800781 8.398438 C 36 9.199219 36 10.398438 36.800781 11.199219 C 37.601562 12 38.800781 12 39.601562 11.199219 L 41 9.800781 C 41.800781 9 41.800781 7.800781 41 7 C 40.601562 6.601562 40.101562 6.398438 39.601562 6.398438 Z M 24 10 C 16.269531 10 10 16.269531 10 24 C 10 31.730469 16.269531 38 24 38 C 31.730469 38 38 31.730469 38 24 C 38 16.269531 31.730469 10 24 10 Z M 2 22 C 0.800781 22 0 22.800781 0 24 C 0 25.199219 0.800781 26 2 26 L 4 26 C 5.199219 26 6 25.199219 6 24 C 6 22.800781 5.199219 22 4 22 Z M 44 22 C 42.800781 22 42 22.800781 42 24 C 42 25.199219 42.800781 26 44 26 L 46 26 C 47.199219 26 48 25.199219 48 24 C 48 22.800781 47.199219 22 46 22 Z M 9.800781 36.199219 C 9.300781 36.199219 8.796875 36.402344 8.398438 36.800781 L 7 38.199219 C 6.199219 39 6.199219 40.199219 7 41 C 7.800781 41.800781 9 41.800781 9.800781 41 L 11.199219 39.601562 C 12 38.800781 12 37.601562 11.199219 36.800781 C 10.800781 36.402344 10.300781 36.199219 9.800781 36.199219 Z M 38.199219 36.199219 C 37.699219 36.199219 37.199219 36.402344 36.800781 36.800781 C 36 37.601562 36 38.800781 36.800781 39.601562 L 38.199219 41 C 39 41.800781 40.199219 41.800781 41 41 C 41.800781 40.199219 41.800781 39 41 38.199219 L 39.601562 36.800781 C 39.203125 36.402344 38.699219 36.199219 38.199219 36.199219 Z M 24 42 C 22.800781 42 22 42.800781 22 44 L 22 46 C 22 47.199219 22.800781 48 24 48 C 25.199219 48 26 47.199219 26 46 L 26 44 C 26 42.800781 25.199219 42 24 42 Z M 24 42 "/>
</g>
</svg>
